<svg xmlns="http://www.w3.org/2000/svg" width="178.62" height="58.488" viewBox="0 0 178.62 58.488"><defs><style>.a{fill:#f40009;}</style></defs><path class="a" d="M150.258,50.863s-.552.49-.552.49c-.785.7-1.594,1.454-2.569,1.078a.978.978,0,0,1-.5-.736,12.72,12.72,0,0,1,1.738-5.686l.225-.474c2.525-4.216,5.46-9.183,9.77-12.63a2.428,2.428,0,0,1,2.346-.621,1.219,1.219,0,0,1,.414.8,1.344,1.344,0,0,1-.138.441c-1.2,1.945-2.35,3.988-3.465,5.948a82.518,82.518,0,0,1-7.265,11.39ZM126.9,40.928a4.844,4.844,0,0,1-3.639-3.562c-.477-2.321,1.121-4.135,2.668-5.049a2.675,2.675,0,0,1,2.4-.442,2.425,2.425,0,0,1,.865,2.157,13.089,13.089,0,0,1-.135,1.6l-.014.115a21.758,21.758,0,0,1-2.141,5.18ZM115.781,51.892a2.574,2.574,0,0,1-.405-1.445c-.057-3.2,3.39-8.942,5.824-12.068h.005a9.465,9.465,0,0,0,4.723,4.273c-1.731,3.857-7.669,12.116-10.146,9.24Zm42.024.569c-.576.392-1.386.091-1.083-.808a46.72,46.72,0,0,1,3.752-6.95l8.35-14.81H163.1c-.272.447-.853,1.472-.853,1.472a7.849,7.849,0,0,0-1.382-1.633c-1.4-.883-3.447-.466-4.862.335-6.149,3.6-10.635,10.7-14.174,16.239,0,0-3.724,6.158-5.792,6.616-1.614.131-1.448-2.043-1.378-2.55A41.5,41.5,0,0,1,138.2,40.078a79.092,79.092,0,0,0,9.439-7.712c6.684-6.39,12.32-13.629,13.143-15.246a13.033,13.033,0,0,1-1.944.212c-5.143,7.173-15.666,17.6-18.856,19.151,1.413-3.4,10.545-19.625,18.316-27.386l1.223-1.177c1.891-1.847,3.85-3.742,5.377-4.052.161-.016.369,0,.548.376a7.056,7.056,0,0,1-1.081,3.709L163.5,9.718a19.943,19.943,0,0,0,2.019-.491c.929-1.748,1.958-3.709,1.578-6.045a1.735,1.735,0,0,0-1.382-1.454C163.4,1.286,160.874,3,158.841,4.39l-.082.049c-10.449,8.187-19.273,19.985-26.988,36.1a5.527,5.527,0,0,1-3.087.686,26.218,26.218,0,0,0,2.2-5.964,15.86,15.86,0,0,0,.16-1.977,4.159,4.159,0,0,0-1.6-3.644,5.521,5.521,0,0,0-4.534.163c-5.515,2.288-9.636,7.942-12.61,12.6a27.63,27.63,0,0,0-3.636,9.755c-.311,2.843.322,4.673,1.938,5.588,1.662.849,3.754-.033,4.576-.458,5.587-2.941,9.49-8.84,12.567-14.233a18.02,18.02,0,0,0,3.073-.392.078.078,0,0,1,.052.017c-.073.244-.729,2.206-.729,2.206-1.95,5.719-2.852,9.608-1.01,11.912,2.632,3.252,6.99-.114,10.535-4.559-.761,5.327,2,6.161,4.1,5.753,2.417-.653,5.111-3.236,6.361-4.559-.4,1.552-.292,4.33,1.907,4.608,1.507.279,2.635-.541,3.941-1.244,4.682-2.549,10.287-11.044,11.742-13.5h-1.908c-2.068,3.126-4.7,7.225-8.012,9.17ZM85.677,20.74h5.358l3.024-4.912H88.7Zm85.6-13.049c-4.086,2.321-8.321,3.824-13.448,3.3-1.421,1.6-2.8,3.252-4.08,4.951,7.2,1.83,14.825-2.239,19.08-6.111a30.037,30.037,0,0,0,6.809-8.824,35.76,35.76,0,0,1-8.361,6.682ZM126.216,6.449c-.852,9.772-8.448,15.508-10.327,15.964-1.139.228-3.082-.278-1.348-4.379a27.274,27.274,0,0,1,11.6-12.615,2.5,2.5,0,0,1,.077,1.029Zm-14.8,24.625a3.322,3.322,0,0,0-3.213-1.847c-4.471.409-8.844,4.085-11.14,9.363A26.88,26.88,0,0,0,94.77,47.1a23.552,23.552,0,0,1,7.444-5.67,15.489,15.489,0,0,1,2.671-6.455c.845-1.259,2.536-3.285,4.434-2.746,1.659.556,1.076,5.148-1.129,9.591a30.815,30.815,0,0,1-6.653,8.792C99.3,52.513,96,54.8,93.109,53.036c-1.821-1.078-2.749-3.334-2.553-6.242.87-8.252,4.626-15.278,10-23.285C106.1,16.074,112.209,8.443,120.44,4.373a5.555,5.555,0,0,1,4.577-.523S117.291,8.1,113.608,15.959c-.937,1.994-2.24,4.689-.928,7.075a2.759,2.759,0,0,0,2.883,1.274c4.514-1.046,7.431-5.262,9.814-9.118,1.382-2.925,2.61-5.834,2.61-9.07,0-.392-.02-.915-.054-1.307,2.157-1.143,6.58.882,6.58.882,3.456,1.144,10.816,6.782,13.3,7.86,1.211-1.405,3.2-3.529,4.321-4.591l-1.622-1c-2.6-1.585-5.342-3.089-8.043-4.575A16.089,16.089,0,0,0,128.8,2.135c-1,.359-1.912.67-1.912.67C125,.746,121.9.941,119.624,1.5c-8.2,2.353-15.808,8.088-23.968,18.04-6,7.795-9.721,14.527-11.7,21.177-1.529,4.477-1.993,11.062,1.738,14.968,3.173,3.316,7.379,2.6,10.35,1.405,6.436-3.17,12.221-10,15.1-17.86.7-2.336,1.468-5.637.27-8.154ZM40.07,23.493c-.011.033-1.093,2.516-1.093,2.516-.157.131-.4.065-.687,0l-.486-.082a4.362,4.362,0,0,1-3.031-2.7c-.489-2.353,1.521-4.2,2.406-4.869a2.68,2.68,0,0,1,2.938-.294,3.086,3.086,0,0,1,.652,2.059,11.184,11.184,0,0,1-.7,3.366Zm-2.325,4.722s-.049.148-.073.2c-.006,0-2.461,4-2.461,4-1.481,1.978-3.331,4.462-5.642,5.654-.685.229-1.632.376-2.115-.228-1.023-1.226-.5-2.925-.067-4.3l.152-.49a40.671,40.671,0,0,1,5.075-9,.249.249,0,0,1,.1-.032.141.141,0,0,1,.015.049,8.145,8.145,0,0,0,5.092,3.84c.01,0,.021.016.021.049a.8.8,0,0,1-.092.261Zm30.7-2.631a78.229,78.229,0,0,1,5.072-6.275c2.62-2.3,3.667-1.291,3.758-.572-2.445,4.379-5.331,9.4-8.044,13.906.005-.016-.849,1.291-.849,1.291a12.512,12.512,0,0,1-4.373,4.493,1.27,1.27,0,0,1-1.051-.115,1.114,1.114,0,0,1-.475-1.079c.118-1.4,1.548-5.7,5.963-11.65ZM41.237,15.649c-3.387-2.222-10.195,2.026-15.647,9.313C20.6,31.5,18.451,39.1,20.794,42.61c3.486,4.134,9.956-1.879,12.708-5.1l.355-.376a40.119,40.119,0,0,0,4.716-6.749s1.286-2.124,1.348-2.223c.795-.146,1.752-.375,2.831-.686-.015.049-4.128,6.961-3.708,10.392.131,1.047.031,4.87,3.764,6.03,4.976.834,8.949-3.023,12.454-6.455,0,0,.6-.571.935-.9-.085.342-.2.8-.2.8-1.457,5.066.507,6.129,1.735,6.521,3.712,1.079,8.147-4.314,8.161-4.314-.115,1.7-.451,3.1,1.339,4.232,1.69.605,3.4-.317,4.7-1.183,4.683-3.3,8.456-8.467,11.5-12.932H81.5c-.023,0-4.8,6.919-7.9,8.423,0,0-.569.29-.894.06-.4-.343-.244-1.057,0-1.562.016-.033,11.969-20.764,11.969-20.764H79.034s-.616,1-.667,1.063c-.038-.033-.128-.2-.191-.286-3.5-4.837-11.415,2.6-17.376,11.23a56.679,56.679,0,0,1-8.247,9.749s-4.489,4.115-6.406,1.158a5.706,5.706,0,0,1-.09-4.25c2.233-6.356,6.081-12.125,10.459-15.606,1.236-.963,2.579-1.242,3.246-.833A1.416,1.416,0,0,1,60.1,20a3.146,3.146,0,0,0-2.5.964c-1.308,1.373-1.763,2.7-1.347,3.939,2.021,2.876,6.051-2.811,5.856-6.275a3.72,3.72,0,0,0-1.721-2.991,5.934,5.934,0,0,0-5.177.05c-1.948.735-5.031,3.3-6.831,5.294-2.266,2.5-6.152,5.278-7.367,4.967.4-1.063,3.681-7.778.228-10.294ZM69.6,52.006c-6.647-4.282-15.667-5.033-30.214-1C23.883,54.654,18.711,56.99,11.921,52.3,9.312,50,8.377,46.287,9.075,40.944c1.62-8.71,6-17.092,13.774-26.39C27.189,9.718,31.215,5.567,36.531,3.9c4.074-1.046,3.693,2.156,3.2,2.614a3.943,3.943,0,0,0-2.07.523,5.36,5.36,0,0,0-2.134,3.644c-.117,2.827,2.809,2.238,4.071.686,1.36-1.749,3.37-5.1,1.789-8.22a4.645,4.645,0,0,0-3.229-2.14c-4.868-.278-9.4,2.042-13.586,4.608A59.366,59.366,0,0,0,3.964,30.422c-2.388,5.817-4.548,14.15-1.31,20.932,2.5,4.706,7.7,7.205,13.906,6.683a109.613,109.613,0,0,0,13.148-2.712c3.538-.85,21.647-7.075,27.6,3.759a8.036,8.036,0,0,1,6.924-3.923c4.065-.375,9.93,1.177,14.2,4.314-1.423-2.14-5.457-5.294-8.823-7.467Z" transform="translate(-1.014 -0.986)"/></svg>