<svg xmlns="http://www.w3.org/2000/svg" width="60" height="60.267" viewBox="0 0 60 60.267"><defs><style>.a{fill:#eee;}.b{fill:#ec625e;}.c{fill:#f4dd45;}.d{fill:#fcc101;}.e{fill:#477b9e;}.f{fill:#3f6d8e;}</style></defs><circle class="a" cx="30" cy="30" r="30" transform="translate(0 0.133)"/><path class="a" d="M7.154,30.133A30.137,30.137,0,0,1,33.71.212a30.134,30.134,0,1,0-3.577,60.054,30.437,30.437,0,0,0,3.577-.212A30.137,30.137,0,0,1,7.154,30.133Z" transform="translate(0 0)"/><circle class="b" cx="23.101" cy="23.101" r="23.101" transform="translate(7.033 7.019)"/><path class="b" d="M66.9,82.734A23.106,23.106,0,0,1,86.428,59.909a23.1,23.1,0,1,0,0,45.649A23.106,23.106,0,0,1,66.9,82.734Z" transform="translate(-52.717 -52.614)"/><circle class="a" cx="16.082" cy="16.082" r="16.082" transform="translate(14.052 14.039)"/><path class="a" d="M126.534,135.348a16.088,16.088,0,0,1,12.5-15.682,16.082,16.082,0,1,0,0,31.364A16.087,16.087,0,0,1,126.534,135.348Z" transform="translate(-105.328 -105.227)"/><circle class="b" cx="9.063" cy="9.063" r="9.063" transform="translate(21.071 21.057)"/><path class="b" d="M186.164,187.956a9.064,9.064,0,0,1,5.486-8.328,9.063,9.063,0,1,0,0,16.656A9.064,9.064,0,0,1,186.164,187.956Z" transform="translate(-157.939 -157.836)"/><path class="c" d="M385.768,17.749l3.466-3.466-2.257-5.131a.691.691,0,0,0-1.121-.214L383.1,11.69Z" transform="translate(-338.009 -7.708)"/><path class="d" d="M360.57,33.834,358.1,36.3a1.85,1.85,0,0,0-.383,2.054l2.154,4.9,3.359-3.359Z" transform="translate(-315.475 -29.851)"/><path class="c" d="M426.493,80.077l3.466-3.466,5.141,2.266A.693.693,0,0,1,435.315,80l-2.753,2.753Z" transform="translate(-376.291 -67.593)"/><path class="d" d="M407.383,108.732l-2.466,2.466a1.85,1.85,0,0,1-2.056.38l-4.906-2.163,3.359-3.359Z" transform="translate(-351.111 -93.572)"/><path class="e" d="M264.2,47.99,241.42,70.77a1.765,1.765,0,1,0,2.5,2.5l22.78-22.78a1.765,1.765,0,0,0-2.5-2.5Z" transform="translate(-212.546 -41.885)"/><path class="f" d="M243.906,73.266a1.765,1.765,0,0,1,0-2.5l22.78-22.78,0,0a1.765,1.765,0,0,0-2.491,0L241.42,70.77a1.765,1.765,0,0,0,2.491,2.5Z" transform="translate(-212.546 -41.885)"/></svg>